<svg xmlns="http://www.w3.org/2000/svg" width="144" height="144" viewBox="0 0 144 144"><defs><linearGradient id="wood" x2="0" y2="1"><stop stop-color="#ba8750"/><stop offset="1" stop-color="#60391f"/></linearGradient></defs><rect width="144" height="144" rx="18" fill="#28120b"/><path d="M19 7h106l12 12v106l-12 12H19L7 125V19Z" fill="url(#wood)" stroke="#ddb879" stroke-width="2"/><path d="M23 15h98l8 8v98l-8 8H23l-8-8V23Z" fill="#7d1731" stroke="#4a2414" stroke-width="3"/><path d="M27 120h90M28 124h30M86 124h30" stroke="#d7b77b" stroke-width="1" opacity=".55"/><g fill="#d5ad68" stroke="#55351d"><circle cx="20" cy="20" r="3"/><circle cx="124" cy="20" r="3"/><circle cx="20" cy="124" r="3"/><circle cx="124" cy="124" r="3"/></g><g transform="translate(32 23) scale(3.33)" fill="none" stroke="#fff0bd" stroke-width="1.7" stroke-linecap="round" stroke-linejoin="round"><path d="M8 16a7 7 0 1 1 8 0v3H8ZM8 22h8M10 19v3M14 19v3"/></g></svg>